<svg width="390" height="58" viewBox="0 0 390 58" fill="none" xmlns="http://www.w3.org/2000/svg">
<path d="M98.4254 18.2343C102.076 15.0162 107.939 13.4097 116.002 13.4097C124.066 13.4097 129.928 15.0162 133.585 18.2343C137.236 21.4524 139.061 27.2001 139.061 35.4879C139.061 43.7756 137.246 49.6903 133.626 52.9031C130.001 56.1212 124.128 57.7277 116.008 57.7277C107.887 57.7277 102.014 56.1212 98.3889 52.9031C94.7639 49.6851 92.9541 43.88 92.9541 35.4879C92.9541 27.0958 94.7796 21.4524 98.4306 18.2343H98.4254ZM102.838 35.4879C102.838 40.8861 103.818 44.7144 105.78 46.9729C107.741 49.2365 111.147 50.3683 116.002 50.3683C120.858 50.3683 124.259 49.2365 126.225 46.9729C128.186 44.7092 129.167 40.8809 129.167 35.4879C129.167 30.0948 128.186 26.3603 126.225 24.1228C124.264 21.8905 120.858 20.7691 116.002 20.7691C111.147 20.7691 107.746 21.8853 105.78 24.1228C103.818 26.3603 102.838 30.147 102.838 35.4879Z" fill="url(#paint0_linear_79_390)"/>
<path d="M150.264 13.8998L162.448 46.0339C162.886 47.1761 163.267 47.7499 163.59 47.7499C163.914 47.7499 164.3 47.1761 164.738 46.0339L176.838 13.8998H186.732L170.214 53.8835C169.724 55.0831 169.072 55.9803 168.253 56.5801C167.434 57.1799 166.725 57.5189 166.125 57.6023C165.525 57.6858 164.68 57.7223 163.59 57.7223C162.5 57.7223 161.655 57.6806 161.055 57.6023C160.456 57.5189 159.736 57.1799 158.891 56.5801C158.046 55.9803 157.378 55.0831 156.888 53.8835L140.37 13.8998H150.264Z" fill="url(#paint1_linear_79_390)"/>
<path d="M189.597 13.8999H214.21C218.189 13.8999 221.214 15.0734 223.285 17.4153C225.356 19.7623 226.394 22.8396 226.394 26.6523V49.8727C226.394 54.7807 223.942 57.2321 219.034 57.2321H197.201C190.004 57.2321 186.41 52.7361 186.41 43.739C186.41 39.5403 187.307 36.244 189.106 33.8448C190.906 31.4455 193.602 30.2459 197.201 30.2459H216.828V27.466C216.828 23.3247 214.809 21.254 210.778 21.254H189.602V13.8946L189.597 13.8999ZM216.823 37.6105H200.878C197.827 37.6105 196.299 39.6551 196.299 43.7442C196.299 47.8333 197.822 49.8779 200.878 49.8779H214.371C216.009 49.8779 216.823 49.059 216.823 47.4265V37.6158V37.6105Z" fill="url(#paint2_linear_79_390)"/>
<path d="M258.032 57.2373H252.065C246.886 57.2373 242.932 56.1472 240.21 53.967C237.482 51.7869 236.121 48.1619 236.121 43.0923V21.2593H230.154V13.8999H236.121V0H245.686V13.8999H258.032V21.2593H245.686V41.1259C245.686 44.2867 246.505 46.5346 248.138 47.8699C249.775 49.2051 252.279 49.8727 255.659 49.8727H258.032V57.2321V57.2373Z" fill="url(#paint3_linear_79_390)"/>
<path d="M300.873 57.2374H276.834C273.454 57.2374 270.658 56.7732 268.452 55.85C266.246 54.9268 264.566 53.4664 263.424 51.474C262.277 49.4868 261.5 47.2649 261.093 44.8083C260.686 42.357 260.477 39.2484 260.477 35.4879C260.477 27.0958 262.073 21.3168 265.26 18.1508C268.447 14.9901 273.83 13.4097 281.408 13.4097C288.168 13.4097 293.331 14.6511 296.904 17.1285C300.471 19.6112 302.26 24.0915 302.26 30.5799C302.26 36.0303 300.023 38.7581 295.553 38.7581H270.366C270.366 42.5186 270.982 45.3143 272.207 47.1398C273.433 48.9653 275.926 49.878 279.687 49.878H300.863V57.2374H300.873ZM270.377 31.3987H290.249C291.667 31.3987 292.377 30.5538 292.377 28.8639C292.377 26.1934 291.328 24.175 289.226 22.8137C287.13 21.4524 284.527 20.7691 281.418 20.7691C277.381 20.7691 274.539 21.6036 272.875 23.2622C271.211 24.926 270.382 27.6382 270.382 31.3987H270.377Z" fill="url(#paint4_linear_79_390)"/>
<path d="M343.883 21.2592H328.1C326.139 21.2592 324.475 21.5043 323.114 21.9946C321.752 22.4849 320.673 23.1108 319.885 23.8775C319.092 24.6442 318.482 25.6769 318.044 26.9861C317.606 28.2952 317.335 29.5783 317.225 30.83C317.116 32.087 317.058 33.6361 317.058 35.4929C317.058 37.8347 317.168 39.7593 317.387 41.2562C317.606 42.7584 318.07 44.2292 318.774 45.6687C319.483 47.1135 320.615 48.1775 322.17 48.8555C323.724 49.5388 325.701 49.8778 328.1 49.8778H344.863V57.2372H325.732C318.811 57.2372 313.986 55.3961 311.258 51.719C308.531 48.0367 307.169 42.6332 307.169 35.4877C307.169 28.3421 308.531 23.0325 311.258 19.3815C313.981 15.7305 318.805 13.905 325.732 13.905H343.883V21.2644V21.2592Z" fill="url(#paint5_linear_79_390)"/>
<path d="M350.59 57.2373V0H360.156V13.8999H373.158C378.499 13.8999 382.641 15.016 385.587 17.2536C388.529 19.4911 390 23.3038 390 28.7021V57.2373H380.434V31.2369C380.434 27.8571 379.725 25.3484 378.306 23.7159C376.888 22.0781 374.572 21.2645 371.354 21.2645H360.15V57.2425H350.585L350.59 57.2373Z" fill="url(#paint6_linear_79_390)"/>
<path d="M90.4927 0.0258789L87.1129 8.47535L70.48 50.055C68.7379 54.4154 64.5706 57.2371 59.8712 57.2371C55.1719 57.2371 51.0097 54.4154 49.2624 50.055L33.3806 10.3478C32.9268 9.21076 31.8419 8.47535 30.6163 8.47535C29.3906 8.47535 28.3057 9.21076 27.8519 10.3478L9.09621 57.2371H0L3.37978 48.7876L20.0127 7.20793C21.7548 2.84238 25.9221 0.0258789 30.6215 0.0258789C35.3208 0.0258789 39.4882 2.84238 41.2302 7.20793L57.1121 46.9152C57.5659 48.0522 58.6559 48.7876 59.8764 48.7876C61.0969 48.7876 62.187 48.0522 62.646 46.9152L81.4017 0.0258789H90.4979H90.4927Z" fill="url(#paint7_linear_79_390)"/>
<defs>
<linearGradient id="paint0_linear_79_390" x1="82.1162" y1="35.9173" x2="137.163" y2="35.7191" gradientUnits="userSpaceOnUse">
<stop stop-color="#1EEB36"/>
<stop offset="1" stop-color="#188EAB"/>
</linearGradient>
<linearGradient id="paint1_linear_79_390" x1="129.472" y1="36.1558" x2="184.824" y2="35.9531" gradientUnits="userSpaceOnUse">
<stop stop-color="#1EEB36"/>
<stop offset="1" stop-color="#188EAB"/>
</linearGradient>
<linearGradient id="paint2_linear_79_390" x1="177.011" y1="35.9042" x2="224.748" y2="35.7518" gradientUnits="userSpaceOnUse">
<stop stop-color="#1EEB36"/>
<stop offset="1" stop-color="#188EAB"/>
</linearGradient>
<linearGradient id="paint3_linear_79_390" x1="223.601" y1="29.0688" x2="256.884" y2="29.0127" gradientUnits="userSpaceOnUse">
<stop stop-color="#1EEB36"/>
<stop offset="1" stop-color="#188EAB"/>
</linearGradient>
<linearGradient id="paint4_linear_79_390" x1="250.656" y1="35.6683" x2="300.54" y2="35.5037" gradientUnits="userSpaceOnUse">
<stop stop-color="#1EEB36"/>
<stop offset="1" stop-color="#188EAB"/>
</linearGradient>
<linearGradient id="paint5_linear_79_390" x1="298.309" y1="35.9119" x2="343.312" y2="35.7764" gradientUnits="userSpaceOnUse">
<stop stop-color="#1EEB36"/>
<stop offset="1" stop-color="#188EAB"/>
</linearGradient>
<linearGradient id="paint6_linear_79_390" x1="341.32" y1="29.0715" x2="388.378" y2="28.9593" gradientUnits="userSpaceOnUse">
<stop stop-color="#1EEB36"/>
<stop offset="1" stop-color="#188EAB"/>
</linearGradient>
<linearGradient id="paint7_linear_79_390" x1="-21.2725" y1="29.0815" x2="86.7705" y2="28.4899" gradientUnits="userSpaceOnUse">
<stop stop-color="#1EEB36"/>
<stop offset="1" stop-color="#188EAB"/>
</linearGradient>
</defs>
</svg>
